<svg id="Layer_1" data-name="Layer 1" xmlns="http://www.w3.org/2000/svg" viewBox="0 0 773.87 151.97"><defs><style>.cls-1{fill:#fff;}</style></defs><path class="cls-1" d="M57.66,37.35h17l44,142H92.33L66.16,84.42,40,179.34H13.62ZM38.13,132.76H94.77V157H38.13Z" transform="translate(-13.62 -28.84)"/><path class="cls-1" d="M112.35,37.35h26.56l21.88,96.39,21.87-96.39h26.57l-36.62,142H149Z" transform="translate(-13.62 -28.84)"/><path class="cls-1" d="M237.94,177.25a36.7,36.7,0,0,1-15-10.6,41.17,41.17,0,0,1-8.35-17.48l23.73-10.45q2.73,8.49,8.45,12.89A22,22,0,0,0,260.59,156q8.4,0,13.09-3.71t4.69-10.35v-6.25a11.56,11.56,0,0,0-2.74-7.91,18.83,18.83,0,0,0-7.13-4.93q-4.39-1.8-11.52-3.95a1.62,1.62,0,0,0-.54-.25.63.63,0,0,1-.34-.15l-1.27-.29a120.76,120.76,0,0,1-19-7.22,32.84,32.84,0,0,1-12.55-11.48q-5.17-7.77-5.18-20.75V74.85q0-12.21,5.13-21a33,33,0,0,1,14.89-13.38q9.76-4.59,23.73-4.59a47.83,47.83,0,0,1,18.61,3.37A33.2,33.2,0,0,1,293.9,49.41,46.57,46.57,0,0,1,302,66.26L279.44,76.81q-2.83-8-7.71-12.21a16.85,16.85,0,0,0-11.33-4.2q-8.2,0-12.6,3.47a11.45,11.45,0,0,0-4.39,9.52v4.78a12.3,12.3,0,0,0,2.93,8.55,20.93,20.93,0,0,0,7.22,5.17,125.87,125.87,0,0,0,11.92,4.35,5.16,5.16,0,0,1,1.27.34c.39.16.78.31,1.17.44a5.12,5.12,0,0,1,.93.24,4.13,4.13,0,0,0,.83.25,98.15,98.15,0,0,1,17.62,7.13A32,32,0,0,1,299,115.92q4.74,7.47,4.74,19.87v6.05q0,12.21-5.28,21a33.53,33.53,0,0,1-15.33,13.38q-10,4.59-24,4.59A57.92,57.92,0,0,1,237.94,177.25Z" transform="translate(-13.62 -28.84)"/><polygon class="cls-1" points="317.17 50.17 372.62 50.17 391.38 19.36 400.91 7.42 411.6 2.26 420.02 0 466.17 0 436.37 50.17 478.37 50.17 467.3 69.66 402.17 69.66 429.96 20.5 420.53 20.75 413.99 23.14 410.09 26.91 384.44 69.66 305.1 69.66 317.17 50.17"/><polygon class="cls-1" points="316.81 97.33 372.26 97.33 391.02 128.14 400.56 140.08 411.24 145.24 419.67 147.5 465.81 147.5 436.01 97.33 478.01 97.33 466.94 77.84 401.81 77.84 429.6 127 420.17 126.75 413.63 124.36 409.73 120.59 384.08 77.84 304.74 77.84 316.81 97.33"/><path class="cls-1" d="M551.65,37.35h17l44,142H586.32L560.14,84.42,534,179.34H507.6Zm-19.53,95.41h56.64V157H532.12Z" transform="translate(-13.62 -28.84)"/><path class="cls-1" d="M608.29,37.35h87.5V61.86h-87.5Zm31,11.82h25.48V179.34H639.25Z" transform="translate(-13.62 -28.84)"/><path class="cls-1" d="M709.46,37.35h25.39v142H709.46ZM720.3,154.83h67.19v24.51H720.3Z" transform="translate(-13.62 -28.84)"/></svg>