<svg id="Layer_1" data-name="Layer 1" xmlns="http://www.w3.org/2000/svg" viewBox="0 0 773.87 151.97"><defs><style>.cls-1{fill:#fff;}</style></defs><path class="cls-1" d="M50.51,18.46h17l44.05,142H85.18L59,65.53,32.83,160.45H6.47ZM31,113.87H87.62v24.22H31Z" transform="translate(-6.47 -9.95)"/><path class="cls-1" d="M105.2,18.46h26.56l21.88,96.39,21.87-96.39h26.56l-36.62,142H141.82Z" transform="translate(-6.47 -9.95)"/><path class="cls-1" d="M230.78,158.36a36.77,36.77,0,0,1-15-10.6,41.29,41.29,0,0,1-8.35-17.48l23.73-10.45q2.75,8.49,8.45,12.89a22,22,0,0,0,13.82,4.39q8.4,0,13.09-3.71t4.68-10.35V116.8a11.6,11.6,0,0,0-2.73-7.91,18.83,18.83,0,0,0-7.13-4.93q-4.39-1.8-11.52-3.95a1.82,1.82,0,0,0-.54-.25.6.6,0,0,1-.34-.15l-1.27-.29a121.31,121.31,0,0,1-19-7.22,32.88,32.88,0,0,1-12.54-11.48Q211,72.85,211,59.87V56q0-12.21,5.13-21A32.92,32.92,0,0,1,231,21.59Q240.75,17,254.71,17a47.81,47.81,0,0,1,18.6,3.37,33.14,33.14,0,0,1,13.43,10.15,46.58,46.58,0,0,1,8.11,16.85L272.29,57.92q-2.84-8-7.72-12.21a16.83,16.83,0,0,0-11.32-4.2q-8.2,0-12.6,3.47a11.46,11.46,0,0,0-4.4,9.52v4.78a12.34,12.34,0,0,0,2.93,8.55A21,21,0,0,0,246.41,73a125.51,125.51,0,0,0,11.91,4.35,5,5,0,0,1,1.27.34c.39.16.78.31,1.17.44a4.91,4.91,0,0,1,.93.24,4.57,4.57,0,0,0,.83.25,98.28,98.28,0,0,1,17.63,7.13A32.1,32.1,0,0,1,291.87,97q4.74,7.47,4.73,19.87v6q0,12.21-5.27,21A33.58,33.58,0,0,1,276,157.33q-10.06,4.59-24,4.59A58,58,0,0,1,230.78,158.36Z" transform="translate(-6.47 -9.95)"/><polygon class="cls-1" points="317.17 50.17 372.62 50.17 391.38 19.36 400.91 7.42 411.6 2.26 420.02 0 466.17 0 436.37 50.17 478.37 50.17 467.3 69.66 402.17 69.66 429.96 20.5 420.53 20.75 413.99 23.14 410.09 26.91 384.44 69.66 305.1 69.66 317.17 50.17"/><polygon class="cls-1" points="316.81 97.33 372.26 97.33 391.02 128.14 400.56 140.08 411.24 145.24 419.67 147.5 465.81 147.5 436.01 97.33 478.01 97.33 466.94 77.84 401.81 77.84 429.6 127 420.17 126.75 413.63 124.36 409.73 120.59 384.08 77.84 304.74 77.84 316.81 97.33"/><path class="cls-1" d="M544.49,18.46h17l44,142H579.16L553,65.53l-26.17,94.92H500.45ZM525,113.87H581.6v24.22H525Z" transform="translate(-6.47 -9.95)"/><path class="cls-1" d="M601.13,18.46h87.5V43h-87.5Zm31,11.82h25.49V160.45H632.09Z" transform="translate(-6.47 -9.95)"/><path class="cls-1" d="M702.31,18.46H727.7v142H702.31Zm10.84,117.48h67.18v24.51H713.15Z" transform="translate(-6.47 -9.95)"/></svg>