<svg id="Layer_1" data-name="Layer 1" xmlns="http://www.w3.org/2000/svg" viewBox="0 0 773.87 150.76"><defs><style>.cls-1{fill:#fff;}.cls-2{fill:#d31e47;}</style></defs><path class="cls-1" d="M50.51,15.2h17l44.05,142H85.18L59,62.27,32.83,157.19H6.47ZM31,110.61H87.62v24.22H31Z" transform="translate(-6.47 -7.9)"/><path class="cls-1" d="M105.2,15.2h26.56l21.88,96.39L175.51,15.2h26.56l-36.62,142H141.82Z" transform="translate(-6.47 -7.9)"/><path class="cls-1" d="M230.78,155.09a36.74,36.74,0,0,1-15-10.59A41.35,41.35,0,0,1,207.44,127l23.73-10.45q2.75,8.49,8.45,12.89a22,22,0,0,0,13.82,4.39q8.4,0,13.09-3.71t4.68-10.35v-6.25a11.58,11.58,0,0,0-2.73-7.91,18.71,18.71,0,0,0-7.13-4.93q-4.39-1.82-11.52-4a1.55,1.55,0,0,0-.54-.24.6.6,0,0,1-.34-.15l-1.27-.29a121.22,121.22,0,0,1-19-7.23,32.86,32.86,0,0,1-12.54-11.47Q211,69.59,211,56.6V52.7q0-12.21,5.13-21A32.92,32.92,0,0,1,231,18.32q9.77-4.59,23.73-4.59a48,48,0,0,1,18.6,3.37,33.16,33.16,0,0,1,13.43,10.16,46.61,46.61,0,0,1,8.11,16.84L272.29,54.65q-2.84-8-7.72-12.21a16.87,16.87,0,0,0-11.32-4.19q-8.2,0-12.6,3.46a11.47,11.47,0,0,0-4.4,9.52V56a12.33,12.33,0,0,0,2.93,8.54,20.87,20.87,0,0,0,7.23,5.18,125.51,125.51,0,0,0,11.91,4.35,5,5,0,0,1,1.27.34c.39.16.78.31,1.17.44a3.75,3.75,0,0,1,.93.24,3.92,3.92,0,0,0,.83.24,99,99,0,0,1,17.63,7.13,32.1,32.1,0,0,1,11.72,11.28q4.74,7.47,4.73,19.88v6q0,12.21-5.27,21A33.58,33.58,0,0,1,276,154.07q-10.06,4.59-24,4.59A57.76,57.76,0,0,1,230.78,155.09Z" transform="translate(-6.47 -7.9)"/><polygon class="cls-2" points="323.85 48 376.9 48 394.85 18.53 403.97 7.1 414.2 2.17 422.26 0 466.42 0 437.9 48 478.08 48 467.5 66.65 405.18 66.65 431.77 19.61 422.74 19.85 416.49 22.14 412.76 25.75 388.21 66.65 312.3 66.65 323.85 48"/><polygon class="cls-2" points="323.51 98.09 376.56 98.09 394.51 127.56 403.63 138.99 413.86 143.93 421.92 146.09 466.07 146.09 437.56 98.09 477.74 98.09 467.16 79.44 404.84 79.44 431.43 126.48 422.4 126.24 416.14 123.95 412.42 120.35 387.87 79.44 311.96 79.44 323.51 98.09"/><path class="cls-1" d="M544.49,15.2h17l44,142H579.16L553,62.27l-26.17,94.92H500.45ZM525,110.61H581.6v24.22H525Z" transform="translate(-6.47 -7.9)"/><path class="cls-1" d="M601.13,15.2h87.5V39.71h-87.5Zm31,11.82h25.49V157.19H632.09Z" transform="translate(-6.47 -7.9)"/><path class="cls-1" d="M702.31,15.2H727.7v142H702.31Zm10.84,117.48h67.18v24.51H713.15Z" transform="translate(-6.47 -7.9)"/></svg>